<svg xmlns="http://www.w3.org/2000/svg" width="24" height="24" viewBox="0 0 24 24" fill="none" stroke="currentColor" stroke-width="2" stroke-linecap="round" stroke-linejoin="round" aria-hidden="true"><path fill="currentColor" stroke="none" opacity=".2" d="M7.44,4h9.12c0.86,0 1.63,0.55 1.9,1.37l2.44,7.32c0.07,0.2 0.1,0.42 0.1,0.63v4.68c0,1.1 -0.9,2 -2,2h-14c-1.1,0 -2,-0.9 -2,-2v-4.68c0,-0.21 0.03,-0.43 0.1,-0.63l2.44,-7.32c0.27,-0.82 1.04,-1.37 1.9,-1.37z"/><path d="M7.44 4L16.56 4A2 2 0 0 1 18.46 5.37L20.9 12.69A2 2 0 0 1 21 13.32L21 18A2 2 0 0 1 19 20L5 20A2 2 0 0 1 3 18L3 13.32A2 2 0 0 1 3.1 12.69L5.54 5.37A2 2 0 0 1 7.44 4ZM3 13L6.93 13A2 2 0 0 1 8.59 13.89L9.41 15.11A2 2 0 0 0 11.07 16L12.93 16A2 2 0 0 0 14.59 15.11L15.41 13.89A2 2 0 0 1 17.07 13L21 13"/></svg>
